<mxfile host="app.diagrams.net" modified="2023-03-13T01:44:20.419Z" agent="5.0 (Windows NT 10.0; Win64; x64) AppleWebKit/537.36 (KHTML, like Gecko) Chrome/110.0.0.0 Safari/537.36" etag="SCgagpGK-VKiD4QNLz1Q" version="21.0.6" type="github">
  <diagram name="第 1 页" id="5OFcyrJHKZd2bGtqm-t-">
    <mxGraphModel dx="1221" dy="743" grid="1" gridSize="10" guides="1" tooltips="1" connect="1" arrows="1" fold="1" page="1" pageScale="1" pageWidth="827" pageHeight="1169" math="0" shadow="0">
      <root>
        <mxCell id="0" />
        <mxCell id="1" parent="0" />
        <mxCell id="I6iqLnxM4ZzbFB_o4cQR-1" value="项目管理" style="rounded=1;whiteSpace=wrap;html=1;" vertex="1" parent="1">
          <mxGeometry x="310" y="130" width="120" height="60" as="geometry" />
        </mxCell>
      </root>
    </mxGraphModel>
  </diagram>
</mxfile>
